<?xml version="1.0" encoding="utf-8"?>
<!-- Generator: Adobe Illustrator 24.0.1, SVG Export Plug-In . SVG Version: 6.00 Build 0)  -->
<svg version="1.1" id="Layer_2_1_" xmlns="http://www.w3.org/2000/svg" xmlns:xlink="http://www.w3.org/1999/xlink" x="0px" y="0px"
	 viewBox="0 0 322 268" style="enable-background:new 0 0 322 268;" xml:space="preserve">
<style type="text/css">
	.st0{clip-path:url(#SVGID_2_);}
	.st1{fill:#FFFFFF;fill-opacity:0;}
	.st2{fill:#FFFFFF;}
</style>
<title>card crew 3</title>
<g>
	<g>
		<g>
			<defs>
				<rect id="SVGID_1_" x="-60" y="-76" width="425.2" height="425.2"/>
			</defs>
			<clipPath id="SVGID_2_">
				<use xlink:href="#SVGID_1_"  style="overflow:visible;"/>
			</clipPath>
			<g class="st0">
				<path class="st1" d="M416.8,303.3h-528.4V-30.1h528.4L416.8,303.3L416.8,303.3z M193.6,144.5c3.4-0.6,4.1-1.2,3.8-4.2
					c-0.9-12.1-1.9-24.1-2.9-36.2c-1.3-16.3-2.7-32.6-4-48.9c-0.9-11.4-1.7-22.8-2.8-34.1c-0.6-7.2-5.3-10.8-12.5-10.1
					c-8.5,0.8-17,1.5-25.5,2.3c-3.3,0.3-6.6,1.2-9.3-1.6c-0.3-0.3-1-0.3-1.5-0.5c-3.2-1.2-6.1,0.3-9.1,1.1
					c-5.7,1.5-11.3,3.7-17.1,4.3c-17.4,2-34.8,3.3-52.3,5c-3.8,0.4-7,2.2-8.4,5.8c-1.3,3.4-1.8,7.1-4.6,9.7c-0.8,0.8-1.6,2-2.6,2.3
					C37,42,29.2,44.5,21.5,47c-5.4,1.8-8.1,6.3-7.4,11.9c0.1,0.9-0.1,1.8-0.6,2.6c-1.6,2-2.2,4.6-1.4,7.1
					c3.2,11.4,6.3,22.8,9.5,34.2c14,50.5,28,100.9,42.1,151.4c1.4,5,4.1,6.5,9,4.9l69.7-22.3c5-1.6,9.9-3.6,15-4.4
					c8.3-1.2,16.6-1.5,25-2.4c2.3-0.2,4.8-0.6,6.6-1.8c1.5-1,3.2-1.7,4.9-1.8c5.6-0.4,9.8-5.2,9.4-10.7l0,0l-0.1-0.6h-3.7
					c-1.3,6.6-6.1,9.1-13.6,7.4c0.9-2.3,2.8-3.3,5-3.9c1.6-0.7,3.1-1.5,4.6-2.4l-0.4-1.2c-3.6,0.5-7.3,0.4-10.6,1.5
					c-35.2,11.1-70.5,22.4-105.7,33.8c-4.1,1.3-7-0.1-8.4-4.2c-0.2-0.7-0.4-1.3-0.6-2c-9.3-33.6-18.7-67.3-28-100.9
					c-7.7-27.6-15.3-55.2-23-82.8c-1.5-5.3-0.1-7.9,5.1-9.6C60.5,39,97.1,27.3,133.7,15.6c4.1-1.3,7.1,0.3,8.2,4.4
					c1.7,6,3.3,11.9,5,17.9c2,7.1,4,14.2,5.9,21.3c3.8-1.8,3.8-1.8,2.8-5.5l-4.7-16.8l-5-18.9c10.2-1,20.1-1.9,29.9-2.8
					c5-0.5,7.4,1.6,7.8,6.7c0.6,7.5,1.2,14.9,1.8,22.4c2.4,30.1,4.9,60.2,7.3,90.4C192.9,137.9,193.3,141.2,193.6,144.5z M167.9,185
					v23.6h11v-35.3l-2.4-0.6c0.7-2,1.4-4.1,1.9-6.2c0.4-2,0.6-4.1,0.6-6.2c-0.1-11.9-9.9-23.8-23.6-23.1c-4.5,0.2-9.1,0-13.6,0h-6.9
					v71.4H146v-59.2h12.5c0.9,0.1,1.7,0.3,2.5,0.8c4.5,2.2,7.2,6.9,6.8,11.9c-0.2,5.2-4,9.7-9.1,10.8c-0.7,0.2-1.8,0.9-1.8,1.4
					c-0.2,3.5-0.1,7.1-0.1,10.9L167.9,185z M263.9,208.6c1.5-7.5,5-11.5,10.6-11.7c2.2,0,4.3,0.6,6.1,1.7c3.7,2.1,5.1,5.9,5.6,9.9
					H297v-71.2h-11.1v50.4c-7.4-4-14.5-3.8-21.9,0v-50.4h-10.9v71.3L263.9,208.6z M256.4,132c7.4,0,14.6-0.1,21.7,0
					c12.5,0.2,21.6-11.6,21.6-21.8c0-9,0-17.9,0-26.9c0-10.1-9.4-22.2-22-21.8c-6.3,0.2-12.5,0-18.8,0c-0.8,0-1.7,0.1-2.6,0.2
					L256.4,132z M199.5,61.6v70.2h11V73.4h9.7c6.1,0,11,4.2,11.6,9.8c0.7,6.8-2.8,12-9.1,13.5c-0.5,0.1-1,0.2-1.4,0.4v11.7H232V132
					h10.8V97l-1.6-0.3c0.6-4.5,1.6-8.9,1.6-13.2c0-11-10-22.7-22.6-22c-5.8,0.3-11.7,0.1-17.5,0.1H199.5z M193.9,208.8H238
					c0-3.4-0.1-6.5,0-9.6c0.1-2-0.7-2.5-2.6-2.5c-9.1,0.1-18.3,0-27.4,0h-2.8v-23.6h21.6v-12h-22.4c0.6-1.4,1.3-2.7,2.1-4
					c1.7-2.1,3.8-3.8,5.4-6c0.8-1.3,2.2-2,3.6-1.9c6.5,0.1,13.1,0,19.6,0c0.9,0,1.8-0.1,2.8-0.1v-11.5c-0.3-0.1-0.5-0.3-0.6-0.3
					c-10.3,0-20.5-0.1-30.8,0c-0.6,0-1.5,1-1.6,1.7c-0.8,5.2-3.8,8.6-8.8,9.9c-1.8,0.5-2.2,1.3-2.2,3.1c0,17.1-0.1,34.1-0.2,51.2
					C193.6,205.1,193.8,206.9,193.9,208.8L193.9,208.8z M119.9,137.2H98.4c-11.9-0.1-21.7,9.2-22.4,21c-0.5,9.4-0.3,18.8-0.2,28.2
					c0.2,12,10.3,23.3,23.8,22.4c4-0.3,8,0,12,0h8.1V185h-11v11.7H98c-5.8-0.1-10.7-4.3-10.9-10.1c-0.3-9-0.3-18.1,0-27.1
					c0.2-4.7,3-8.5,7.6-9.5c4.5-1,9.2-0.6,14.2-0.9v12h11L119.9,137.2L119.9,137.2z M119,61.6H98.2c-11.3,0-21.1,7.5-22.1,18.8
					c-0.8,10.8-0.9,21.6-0.2,32.3c0.5,9.3,9.4,19.9,22.4,19.4c6.1-0.2,12.2,0,18.3,0c0.8,0,1.5-0.1,2.3-0.2v-23.2h-11v11.5H97.7
					c-6.2-0.1-11-4.5-11.2-10.8c-0.2-8.4-0.2-16.9,0-25.3c0.1-4.7,2.6-8.8,7.1-9.9s9.4-0.8,14.4-1.1V85h11V61.6z M167.3,116.7
					c1.9,0,3.9,0.1,5.8,0c12.8-0.8,19.8-13.2,13.4-24.3c-2.7-4.6-6.5-8.6-10.1-12.5c-4.5-4.9-9.4-9.5-14.1-14.3
					c-2.1-2.2-4.7-2.3-6.9,0c-4.9,4.9-9.9,9.8-14.9,14.6c-4.3,3.8-7.9,8.4-10.5,13.6c-4.1,8.9-0.1,18.7,9.2,21.8
					c3.4,1.1,7,1.3,10.7,1.9c-0.6,2.9-2.2,5.8-5.9,6.8c-2.3,0.7-3.6,2.1-3.5,4.5c0,2.3,1.9,4,4.2,4l0,0h0.2c9.1,0.1,18.3,0.1,27.4,0
					c2,0.1,3.8-1.3,4.1-3.3c0.5-2.2-0.4-3.5-2.5-4.5C170.5,123.5,167.7,121.1,167.3,116.7L167.3,116.7z"/>
				<path class="st2" d="M193.6,144.5c-0.3-3.3-0.6-6.6-0.9-9.8c-2.4-30.1-4.9-60.2-7.3-90.3c-0.6-7.5-1.2-14.9-1.8-22.4
					c-0.4-5.1-2.8-7.2-7.8-6.7c-9.8,0.9-19.8,1.8-29.9,2.8l5.2,18.8l4.7,16.8c1,3.8,1,3.8-2.8,5.5c-2-7.1-4-14.2-6-21.3
					c-1.7-6-3.3-11.9-5-17.9c-1.2-4.1-4.2-5.7-8.2-4.4C97.2,27.3,60.6,39.1,24,50.8c-5.1,1.6-6.5,4.3-5.1,9.6
					c7.7,27.6,15.3,55.2,23,82.8c9.3,33.6,18.7,67.2,28,100.9c0.2,0.7,0.4,1.4,0.6,2c1.3,4.1,4.2,5.5,8.4,4.2
					c35.2-11.3,70.4-22.5,105.7-33.8c3.4-1.1,7.1-1,10.6-1.5l0.4,1.2c-1.4,0.9-3,1.8-4.6,2.4c-2.3,0.7-4.2,1.6-5,3.9
					c7.5,1.8,12.3-0.8,13.6-7.4h3.7c0.7,5.5-3.2,10.6-8.7,11.3l0,0c-0.2,0-0.4,0-0.6,0.1c-1.8,0.2-3.5,0.8-4.9,1.8
					c-1.8,1.2-4.4,1.5-6.6,1.8c-8.3,0.9-16.7,1.2-24.9,2.4c-5.1,0.8-10,2.8-15,4.4c-23.2,7.4-46.4,14.8-69.6,22.3
					c-4.9,1.5-7.6,0.1-9-4.9c-14-50.5-28-100.9-42.1-151.4c-3.2-11.4-6.3-22.8-9.5-34.2c-0.8-2.4-0.3-5.1,1.4-7.1
					c0.5-0.8,0.8-1.7,0.7-2.6c-0.7-5.6,2-10.2,7.4-11.9c7.8-2.5,15.6-5,23.3-7.6c1-0.3,1.8-1.5,2.6-2.3c2.7-2.7,3.3-6.3,4.6-9.7
					c1.4-3.6,4.6-5.4,8.4-5.8c17.4-1.6,34.9-3,52.3-5c5.8-0.7,11.4-2.8,17.1-4.3c3-0.8,5.9-2.3,9.1-1.1c0.5,0.2,1.1,0.2,1.5,0.5
					c2.8,2.8,6.1,1.9,9.3,1.6c8.5-0.8,17-1.5,25.5-2.3c7.1-0.7,11.9,2.9,12.5,10.1c1,11.3,1.8,22.7,2.8,34.1
					c1.3,16.3,2.7,32.6,4,48.9c0.9,12.1,1.9,24.1,2.8,36.2C197.6,143.3,197,143.9,193.6,144.5z M96.3,23.2l-0.1-0.5
					c-1.2,0.1-2.4,0.2-3.6,0.3c-10,0.9-19.9,2-29.9,2.8c-6.3,0.6-8.8,4.3-6.8,10.4L96.3,23.2z"/>
				<path class="st2" d="M167.9,185h-11.1c0-3.8-0.1-7.3,0.1-10.9c0-0.5,1.1-1.2,1.8-1.4c5.1-1.1,8.8-5.5,9.1-10.7
					c0.4-5-2.3-9.7-6.8-11.9c-0.8-0.4-1.6-0.7-2.5-0.8c-4.1-0.1-8.1,0-12.5,0v59.2h-11v-71.4h6.9c4.5,0,9.1,0.2,13.6,0
					c13.7-0.7,23.4,11.2,23.6,23.1c0,2.1-0.2,4.2-0.6,6.2c-0.5,2.1-1.1,4.1-1.9,6.2l2.4,0.6v35.3h-11L167.9,185z"/>
				<path class="st2" d="M263.9,208.7h-10.7v-71.3H264v50.4c7.4-3.7,14.5-3.9,21.9,0v-50.4H297v71.2h-10.8c-0.5-4-1.9-7.8-5.6-9.9
					c-1.9-1.1-4-1.6-6.1-1.7C268.8,197.1,265.3,201.2,263.9,208.7z"/>
				<path class="st2" d="M256.4,132.1V61.8c0.9-0.1,1.7-0.2,2.6-0.2c6.3,0,12.5,0.2,18.8,0c12.6-0.4,22,11.7,22,21.8v26.9
					c0,10.3-9.1,22-21.6,21.8C271,132,263.8,132.1,256.4,132.1z M267.4,73.6v46.7h10.3c5.9,0,10.8-4.7,11-10.6
					c0.2-8.5,0.1-17,0-25.6c-0.1-5.1-4-9.8-9-10.4C275.8,73.2,271.6,73.6,267.4,73.6L267.4,73.6z"/>
				<path class="st2" d="M199.5,61.6h3.2c5.8,0,11.7,0.3,17.5-0.1c12.5-0.7,22.6,10.9,22.6,22c0,4.3-1,8.7-1.6,13.2l1.6,0.3v35H232
					v-23.3h-10.8V97c0.5-0.1,0.9-0.3,1.4-0.4c6.4-1.4,9.9-6.6,9.1-13.5c-0.6-5.6-5.5-9.8-11.6-9.8h-9.7v58.4h-11L199.5,61.6z"/>
				<path class="st2" d="M193.9,208.8c-0.1-1.9-0.3-3.7-0.3-5.6c0-17.1,0.2-34.1,0.2-51.2c0-1.7,0.4-2.6,2.2-3.1
					c5-1.4,7.9-4.7,8.8-9.9c0.1-0.7,1.1-1.7,1.6-1.7c10.3-0.1,20.5,0,30.8,0c0.2,0,0.3,0.1,0.6,0.3v11.6c-0.9,0-1.8,0.1-2.8,0.1
					c-6.5,0-13.1,0.1-19.6,0c-1.5-0.1-2.9,0.6-3.6,1.9c-1.6,2.1-3.7,3.9-5.4,6c-0.8,1.3-1.5,2.6-2.1,4h22.5v12h-21.6v23.7h2.8
					c9.1,0,18.3,0.1,27.4,0c1.9,0,2.7,0.4,2.6,2.5c-0.2,3.1,0,6.2,0,9.6L193.9,208.8z"/>
				<path class="st2" d="M119.9,137.2V161h-11v-12c-5,0.3-9.7-0.1-14.2,0.9c-4.6,1-7.4,4.8-7.6,9.5c-0.3,9-0.3,18.1,0,27.1
					c0.2,5.8,5.1,10,10.9,10.1c3.5,0,7,0,10.7,0V185h11v23.8h-8.1c-4,0-8-0.2-12,0C86,209.7,76,198.4,75.8,186.4
					c-0.1-9.4-0.3-18.8,0.2-28.2c0.7-11.8,10.6-21.1,22.4-21C105.5,137.2,112.5,137.2,119.9,137.2z"/>
				<path class="st2" d="M119,61.6V85h-10.9V73.1c-5,0.3-9.9,0-14.4,1.1s-7,5.2-7.1,9.9c-0.2,8.4-0.2,16.9,0,25.3
					c0.1,6.3,4.9,10.7,11.2,10.8H108v-11.5h11v23.1c-0.8,0.1-1.5,0.2-2.3,0.2c-6.1,0-12.2-0.2-18.3,0.1c-13.1,0.5-22-10.2-22.4-19.4
					c-0.7-10.8-0.6-21.6,0.2-32.3c1-11.2,10.8-18.8,22.1-18.8L119,61.6z"/>
				<path class="st2" d="M167.3,116.7c0.4,4.4,3.2,6.7,6.7,8.3c2.1,1,3,2.3,2.5,4.5c-0.3,2-2.1,3.4-4.1,3.3
					c-9.1,0.1-18.3,0.1-27.4,0c-2.3,0.2-4.2-1.5-4.4-3.8c0-0.1,0-0.1,0-0.2c-0.2-2.4,1.1-3.8,3.5-4.5c3.7-1.1,5.2-3.9,5.9-6.8
					c-3.7-0.6-7.3-0.8-10.7-1.9c-9.3-3.1-13.3-12.9-9.2-21.8c2.6-5.1,6.1-9.8,10.4-13.6c5-4.8,10-9.6,14.9-14.6
					c2.2-2.2,4.8-2.2,6.9,0c4.6,4.8,9.6,9.4,14.1,14.3c3.6,4,7.4,7.9,10.1,12.5c6.5,11.1-0.6,23.4-13.4,24.3
					C171.2,116.9,169.3,116.7,167.3,116.7z M158.6,68.9c-5.7,5.4-11.8,10.8-17.5,16.7c-2.9,3.1-5.4,6.6-7.4,10.4
					c-2.9,5.6-0.6,11.9,4.9,14.9c4,2.2,8.2,2.8,12.5,0.7c1.7-0.9,3.4-1.9,5.4-3c-2.3,7.4-2.1,15.8-10.8,19.9H171
					c-6.4-4-9.6-10.4-10.1-19.6c2.1,1.2,4.3,2.3,6.6,3.3c4.7,1.8,10.9,0,14.3-3.9s4-8.8,0.9-13.8c-2.4-3.8-5.2-7.4-8.4-10.6
					C169.3,78.6,163.8,73.9,158.6,68.9L158.6,68.9z"/>
				<path class="st1" d="M96.3,23.2L55.9,36.1c-2-6.1,0.5-9.8,6.8-10.4c10-0.8,19.9-1.8,29.9-2.8c1.2-0.1,2.4-0.2,3.6-0.3L96.3,23.2
					z"/>
				<path class="st1" d="M267.5,73.6c4.2,0,8.3-0.4,12.3,0.1c5,0.6,8.9,5.3,9,10.4c0.1,8.5,0.2,17,0,25.6c-0.2,5.9-5.1,10.6-11,10.6
					h-10.3V73.6z"/>
				<path class="st1" d="M158.6,68.9c5.2,4.9,10.7,9.7,15.8,14.9c3.1,3.2,6,6.8,8.4,10.6c3.1,5,2.6,9.7-0.9,13.8s-9.5,5.7-14.3,3.9
					c-2.3-1-4.5-2.1-6.6-3.3c0.6,9.2,3.8,15.6,10.1,19.6h-25.3c8.7-4.1,8.5-12.5,10.8-19.9c-2,1.1-3.7,2.1-5.4,3
					c-4.3,2.2-8.5,1.5-12.5-0.7c-5.6-3-7.9-9.3-4.9-14.9c2-3.8,4.4-7.3,7.4-10.4C146.8,79.7,152.9,74.3,158.6,68.9z"/>
			</g>
		</g>
	</g>
</g>
</svg>
