<svg id="Layer_2" data-name="Layer 2" xmlns="http://www.w3.org/2000/svg" xmlns:xlink="http://www.w3.org/1999/xlink" viewBox="0 0 528.4 333.4"><defs><style>.cls-1{fill:none;}.cls-2{clip-path:url(#clip-path);}.cls-3,.cls-4{fill:#fff;}.cls-3{fill-opacity:0;}</style><clipPath id="clip-path" transform="translate(51.6 -45.9)"><rect class="cls-1" width="425.2" height="425.2"/></clipPath></defs><title>Card Crew Logo White</title><g class="cls-2"><path class="cls-3" d="M476.8,379.3H-51.6V45.9H476.8V379.3ZM253.6,220.5c3.4-.6,4.1-1.2,3.8-4.2-.9-12.1-1.9-24.1-2.9-36.2-1.3-16.3-2.7-32.6-4-48.9-.9-11.4-1.7-22.8-2.8-34.1-.6-7.2-5.3-10.8-12.5-10.1-8.5.8-17,1.5-25.5,2.3-3.3.3-6.6,1.2-9.3-1.6-.3-.3-1-.3-1.5-.5-3.2-1.2-6.1.3-9.1,1.1-5.7,1.5-11.3,3.7-17.1,4.3-17.4,2-34.8,3.3-52.3,5-3.8.4-7,2.2-8.4,5.8-1.3,3.4-1.8,7.1-4.6,9.7-.8.8-1.6,2-2.6,2.3C97,118,89.2,120.5,81.5,123c-5.4,1.8-8.1,6.3-7.4,11.9a4,4,0,0,1-.6,2.6,7.58,7.58,0,0,0-1.4,7.1c3.2,11.4,6.3,22.8,9.5,34.2q21,75.75,42.1,151.4c1.4,5,4.1,6.5,9,4.9l69.7-22.3c5-1.6,9.9-3.6,15-4.4,8.3-1.2,16.6-1.5,25-2.4a14.43,14.43,0,0,0,6.6-1.8,10.11,10.11,0,0,1,4.9-1.8,10.06,10.06,0,0,0,9.4-10.7h0l-.1-.6h-3.7c-1.3,6.6-6.1,9.1-13.6,7.4.9-2.3,2.8-3.3,5-3.9a40.18,40.18,0,0,0,4.6-2.4l-.4-1.2c-3.6.5-7.3.4-10.6,1.5q-52.8,16.65-105.7,33.8c-4.1,1.3-7-.1-8.4-4.2-.2-.7-.4-1.3-.6-2q-14-50.4-28-100.9c-7.7-27.6-15.3-55.2-23-82.8-1.5-5.3-.1-7.9,5.1-9.6q54.9-17.7,109.8-35.2c4.1-1.3,7.1.3,8.2,4.4,1.7,6,3.3,11.9,5,17.9,2,7.1,4,14.2,5.9,21.3,3.8-1.8,3.8-1.8,2.8-5.5l-4.7-16.8-5-18.9c10.2-1,20.1-1.9,29.9-2.8,5-.5,7.4,1.6,7.8,6.7.6,7.5,1.2,14.9,1.8,22.4,2.4,30.1,4.9,60.2,7.3,90.4C252.9,213.9,253.3,217.2,253.6,220.5ZM227.9,261v23.6h11V249.3l-2.4-.6a63.6,63.6,0,0,0,1.9-6.2,31.79,31.79,0,0,0,.6-6.2c-.1-11.9-9.9-23.8-23.6-23.1-4.5.2-9.1,0-13.6,0h-6.9v71.4H206V225.4h12.5a5.66,5.66,0,0,1,2.5.8,12.15,12.15,0,0,1,6.8,11.9,11.6,11.6,0,0,1-9.1,10.8c-.7.2-1.8.9-1.8,1.4-.2,3.5-.1,7.1-.1,10.9Zm96,23.6c1.5-7.5,5-11.5,10.6-11.7a11.67,11.67,0,0,1,6.1,1.7c3.7,2.1,5.1,5.9,5.6,9.9H357V213.3H345.9v50.4c-7.4-4-14.5-3.8-21.9,0V213.3H313.1v71.3ZM316.4,208c7.4,0,14.6-.1,21.7,0,12.5.2,21.6-11.6,21.6-21.8V159.3c0-10.1-9.4-22.2-22-21.8-6.3.2-12.5,0-18.8,0a24.62,24.62,0,0,0-2.6.2Zm-56.9-70.4v70.2h11V149.4h9.7c6.1,0,11,4.2,11.6,9.8.7,6.8-2.8,12-9.1,13.5a5.73,5.73,0,0,0-1.4.4v11.7H292V208h10.8V173l-1.6-.3c.6-4.5,1.6-8.9,1.6-13.2,0-11-10-22.7-22.6-22-5.8.3-11.7.1-17.5.1Zm-5.6,147.2H298c0-3.4-.1-6.5,0-9.6.1-2-.7-2.5-2.6-2.5-9.1.1-18.3,0-27.4,0h-2.8V249.1h21.6v-12H264.4a30.47,30.47,0,0,1,2.1-4c1.7-2.1,3.8-3.8,5.4-6a3.92,3.92,0,0,1,3.6-1.9c6.5.1,13.1,0,19.6,0,.9,0,1.8-.1,2.8-.1V213.6c-.3-.1-.5-.3-.6-.3-10.3,0-20.5-.1-30.8,0-.6,0-1.5,1-1.6,1.7-.8,5.2-3.8,8.6-8.8,9.9-1.8.5-2.2,1.3-2.2,3.1,0,17.1-.1,34.1-.2,51.2a52.4,52.4,0,0,0,.2,5.6Zm-74-71.6H158.4a22.29,22.29,0,0,0-22.4,21c-.5,9.4-.3,18.8-.2,28.2.2,12,10.3,23.3,23.8,22.4,4-.3,8,0,12,0h8.1V261h-11v11.7H158c-5.8-.1-10.7-4.3-10.9-10.1-.3-9-.3-18.1,0-27.1.2-4.7,3-8.5,7.6-9.5s9.2-.6,14.2-.9v12h11V213.2Zm-.9-75.6H158.2c-11.3,0-21.1,7.5-22.1,18.8a232.23,232.23,0,0,0-.2,32.3c.5,9.3,9.4,19.9,22.4,19.4,6.1-.2,12.2,0,18.3,0a17.85,17.85,0,0,0,2.3-.2V184.7h-11v11.5H157.7c-6.2-.1-11-4.5-11.2-10.8-.2-8.4-.2-16.9,0-25.3.1-4.7,2.6-8.8,7.1-9.9s9.4-.8,14.4-1.1V161h11Zm48.3,55.1c1.9,0,3.9.1,5.8,0,12.8-.8,19.8-13.2,13.4-24.3-2.7-4.6-6.5-8.6-10.1-12.5-4.5-4.9-9.4-9.5-14.1-14.3-2.1-2.2-4.7-2.3-6.9,0-4.9,4.9-9.9,9.8-14.9,14.6A45.12,45.12,0,0,0,190,169.8c-4.1,8.9-.1,18.7,9.2,21.8,3.4,1.1,7,1.3,10.7,1.9-.6,2.9-2.2,5.8-5.9,6.8-2.3.7-3.6,2.1-3.5,4.5a4.06,4.06,0,0,0,4.2,4h.2c9.1.1,18.3.1,27.4,0a3.92,3.92,0,0,0,4.1-3.3c.5-2.2-.4-3.5-2.5-4.5-3.4-1.5-6.2-3.9-6.6-8.3Z" transform="translate(51.6 -45.9)"/><path class="cls-4" d="M253.6,220.5c-.3-3.3-.6-6.6-.9-9.8-2.4-30.1-4.9-60.2-7.3-90.3-.6-7.5-1.2-14.9-1.8-22.4-.4-5.1-2.8-7.2-7.8-6.7-9.8.9-19.8,1.8-29.9,2.8l5.2,18.8,4.7,16.8c1,3.8,1,3.8-2.8,5.5l-6-21.3c-1.7-6-3.3-11.9-5-17.9-1.2-4.1-4.2-5.7-8.2-4.4Q138.9,109.15,84,126.8c-5.1,1.6-6.5,4.3-5.1,9.6,7.7,27.6,15.3,55.2,23,82.8q13.95,50.4,28,100.9c.2.7.4,1.4.6,2,1.3,4.1,4.2,5.5,8.4,4.2q52.8-16.95,105.7-33.8c3.4-1.1,7.1-1,10.6-1.5l.4,1.2a25.1,25.1,0,0,1-4.6,2.4c-2.3.7-4.2,1.6-5,3.9,7.5,1.8,12.3-.8,13.6-7.4h3.7a10.12,10.12,0,0,1-8.7,11.3h0a1.27,1.27,0,0,0-.6.1,10.38,10.38,0,0,0-4.9,1.8c-1.8,1.2-4.4,1.5-6.6,1.8-8.3.9-16.7,1.2-24.9,2.4-5.1.8-10,2.8-15,4.4Q167.8,324,133,335.2c-4.9,1.5-7.6.1-9-4.9q-21-75.75-42.1-151.4c-3.2-11.4-6.3-22.8-9.5-34.2a7.37,7.37,0,0,1,1.4-7.1,4.1,4.1,0,0,0,.7-2.6c-.7-5.6,2-10.2,7.4-11.9,7.8-2.5,15.6-5,23.3-7.6,1-.3,1.8-1.5,2.6-2.3,2.7-2.7,3.3-6.3,4.6-9.7,1.4-3.6,4.6-5.4,8.4-5.8,17.4-1.6,34.9-3,52.3-5,5.8-.7,11.4-2.8,17.1-4.3,3-.8,5.9-2.3,9.1-1.1a6.61,6.61,0,0,1,1.5.5c2.8,2.8,6.1,1.9,9.3,1.6,8.5-.8,17-1.5,25.5-2.3,7.1-.7,11.9,2.9,12.5,10.1,1,11.3,1.8,22.7,2.8,34.1,1.3,16.3,2.7,32.6,4,48.9.9,12.1,1.9,24.1,2.8,36.2C257.6,219.3,257,219.9,253.6,220.5ZM156.3,99.2l-.1-.5-3.6.3c-10,.9-19.9,2-29.9,2.8-6.3.6-8.8,4.3-6.8,10.4Z" transform="translate(51.6 -45.9)"/><path class="cls-4" d="M227.9,261H216.8c0-3.8-.1-7.3.1-10.9,0-.5,1.1-1.2,1.8-1.4a11.6,11.6,0,0,0,9.1-10.7,12.15,12.15,0,0,0-6.8-11.9,7.32,7.32,0,0,0-2.5-.8c-4.1-.1-8.1,0-12.5,0v59.2H195V213.1h6.9c4.5,0,9.1.2,13.6,0,13.7-.7,23.4,11.2,23.6,23.1a31.79,31.79,0,0,1-.6,6.2,48.92,48.92,0,0,1-1.9,6.2l2.4.6v35.3H228Z" transform="translate(51.6 -45.9)"/><path class="cls-4" d="M323.9,284.7H313.2V213.4H324v50.4c7.4-3.7,14.5-3.9,21.9,0V213.4H357v71.2H346.2c-.5-4-1.9-7.8-5.6-9.9a13.33,13.33,0,0,0-6.1-1.7C328.8,273.1,325.3,277.2,323.9,284.7Z" transform="translate(51.6 -45.9)"/><path class="cls-4" d="M316.4,208.1V137.8a22.75,22.75,0,0,1,2.6-.2c6.3,0,12.5.2,18.8,0,12.6-.4,22,11.7,22,21.8v26.9c0,10.3-9.1,22-21.6,21.8C331,208,323.8,208.1,316.4,208.1Zm11-58.5v46.7h10.3a11,11,0,0,0,11-10.6c.2-8.5.1-17,0-25.6-.1-5.1-4-9.8-9-10.4-3.9-.5-8.1-.1-12.3-.1Z" transform="translate(51.6 -45.9)"/><path class="cls-4" d="M259.5,137.6h3.2c5.8,0,11.7.3,17.5-.1,12.5-.7,22.6,10.9,22.6,22,0,4.3-1,8.7-1.6,13.2l1.6.3v35H292V184.7H281.2V173c.5-.1.9-.3,1.4-.4,6.4-1.4,9.9-6.6,9.1-13.5-.6-5.6-5.5-9.8-11.6-9.8h-9.7v58.4h-11Z" transform="translate(51.6 -45.9)"/><path class="cls-4" d="M253.9,284.8c-.1-1.9-.3-3.7-.3-5.6,0-17.1.2-34.1.2-51.2,0-1.7.4-2.6,2.2-3.1,5-1.4,7.9-4.7,8.8-9.9.1-.7,1.1-1.7,1.6-1.7,10.3-.1,20.5,0,30.8,0,.2,0,.3.1.6.3v11.6c-.9,0-1.8.1-2.8.1-6.5,0-13.1.1-19.6,0a3.73,3.73,0,0,0-3.6,1.9c-1.6,2.1-3.7,3.9-5.4,6a30.47,30.47,0,0,0-2.1,4h22.5v12H265.2v23.7H268c9.1,0,18.3.1,27.4,0,1.9,0,2.7.4,2.6,2.5-.2,3.1,0,6.2,0,9.6Z" transform="translate(51.6 -45.9)"/><path class="cls-4" d="M179.9,213.2V237h-11V225c-5,.3-9.7-.1-14.2.9s-7.4,4.8-7.6,9.5c-.3,9-.3,18.1,0,27.1.2,5.8,5.1,10,10.9,10.1h10.7V261h11v23.8h-8.1c-4,0-8-.2-12,0-13.6.9-23.6-10.4-23.8-22.4-.1-9.4-.3-18.8.2-28.2a22.36,22.36,0,0,1,22.4-21Z" transform="translate(51.6 -45.9)"/><path class="cls-4" d="M179,137.6V161H168.1V149.1c-5,.3-9.9,0-14.4,1.1s-7,5.2-7.1,9.9c-.2,8.4-.2,16.9,0,25.3.1,6.3,4.9,10.7,11.2,10.8H168V184.7h11v23.1a17.85,17.85,0,0,1-2.3.2c-6.1,0-12.2-.2-18.3.1-13.1.5-22-10.2-22.4-19.4a232,232,0,0,1,.2-32.3c1-11.2,10.8-18.8,22.1-18.8Z" transform="translate(51.6 -45.9)"/><path class="cls-4" d="M227.3,192.7c.4,4.4,3.2,6.7,6.7,8.3,2.1,1,3,2.3,2.5,4.5a3.92,3.92,0,0,1-4.1,3.3c-9.1.1-18.3.1-27.4,0a4.06,4.06,0,0,1-4.4-3.8v-.2c-.2-2.4,1.1-3.8,3.5-4.5,3.7-1.1,5.2-3.9,5.9-6.8-3.7-.6-7.3-.8-10.7-1.9-9.3-3.1-13.3-12.9-9.2-21.8a46.06,46.06,0,0,1,10.4-13.6c5-4.8,10-9.6,14.9-14.6,2.2-2.2,4.8-2.2,6.9,0,4.6,4.8,9.6,9.4,14.1,14.3,3.6,4,7.4,7.9,10.1,12.5,6.5,11.1-.6,23.4-13.4,24.3A56.09,56.09,0,0,1,227.3,192.7Zm-8.7-47.8c-5.7,5.4-11.8,10.8-17.5,16.7a47.89,47.89,0,0,0-7.4,10.4c-2.9,5.6-.6,11.9,4.9,14.9,4,2.2,8.2,2.8,12.5.7,1.7-.9,3.4-1.9,5.4-3-2.3,7.4-2.1,15.8-10.8,19.9H231c-6.4-4-9.6-10.4-10.1-19.6a67.69,67.69,0,0,0,6.6,3.3c4.7,1.8,10.9,0,14.3-3.9s4-8.8.9-13.8a61.18,61.18,0,0,0-8.4-10.6c-5-5.3-10.5-10-15.7-15Z" transform="translate(51.6 -45.9)"/><path class="cls-3" d="M156.3,99.2l-40.4,12.9c-2-6.1.5-9.8,6.8-10.4,10-.8,19.9-1.8,29.9-2.8l3.6-.3Z" transform="translate(51.6 -45.9)"/><path class="cls-3" d="M327.5,149.6c4.2,0,8.3-.4,12.3.1,5,.6,8.9,5.3,9,10.4.1,8.5.2,17,0,25.6a11,11,0,0,1-11,10.6H327.5Z" transform="translate(51.6 -45.9)"/><path class="cls-3" d="M218.6,144.9c5.2,4.9,10.7,9.7,15.8,14.9a66.36,66.36,0,0,1,8.4,10.6c3.1,5,2.6,9.7-.9,13.8a13.27,13.27,0,0,1-14.3,3.9,67.69,67.69,0,0,1-6.6-3.3c.6,9.2,3.8,15.6,10.1,19.6H205.8c8.7-4.1,8.5-12.5,10.8-19.9-2,1.1-3.7,2.1-5.4,3-4.3,2.2-8.5,1.5-12.5-.7-5.6-3-7.9-9.3-4.9-14.9a44.72,44.72,0,0,1,7.4-10.4C206.8,155.7,212.9,150.3,218.6,144.9Z" transform="translate(51.6 -45.9)"/></g></svg>